<svg height="408pt" viewBox="-1 0 408 408.89857" width="408pt" xmlns="http://www.w3.org/2000/svg"><path d="m54.78125 362.097656c-53.3125-53.324218-53.3125-139.777344 0-193.09375l111.019531-111.019531c53.324219-53.328125 139.777344-53.328125 193.089844 0 53.328125 53.3125 53.328125 139.765625 0 193.078125l-111.015625 111.035156c-53.328125 53.3125-139.765625 53.3125-193.09375 0" fill="#fff"/><path d="m54.78125 362.097656 4.832031-4.832031c-25.347656-25.347656-37.984375-58.5-38-91.726563.015625-33.226562 12.652344-66.382812 38-91.699218l111.019531-111.035156c25.347657-25.347657 58.503907-37.988282 91.714844-38 33.222656.011718 66.375 12.652343 91.710938 38 1.292968 1.28125 3.015625 2.007812 4.832031 2.007812v-6.828125l-4.816406 4.820313c25.332031 25.351562 37.972656 58.507812 37.984375 91.714843-.011719 33.210938-12.652344 66.367188-37.984375 91.726563l-111.035157 111.019531c-25.347656 25.332031-58.503906 37.972656-91.714843 37.988281-33.222657-.015625-66.375-12.65625-91.710938-37.988281l-9.652343 9.652344c27.964843 27.980469 64.703124 41.992187 101.367187 41.980469 36.664063.015624 73.386719-13.984376 101.363281-41.980469l111.035156-111.019531c27.976563-27.992188 41.996094-64.714844 41.980469-101.378907.015625-36.667969-14.003906-73.386719-41.980469-101.367187-1.28125-1.28125-3.027343-1.988282-4.835937-1.988282v6.820313l4.835937-4.832031c-27.980468-27.996094-64.714843-41.996094-101.378906-41.980469-36.664062-.015625-73.386718 13.984375-101.367187 41.980469l-111.019531 111.019531c-27.992188 27.964844-41.996094 64.699219-41.996094 101.367187 0 36.667969 14.003906 73.398438 41.996094 101.378907z" fill="#54596e"/><path d="m125.808594 88.953125c-.226563.539063-25.648438 56.425781-25.675782 133.777344-.015624 54.121093 12.554688 118.882812 55.191407 181.808593 2.117187 3.125 6.367187 3.933594 9.480469 1.816407 3.128906-2.105469 3.9375-6.359375 1.820312-9.472657-40.847656-60.332031-52.816406-122.09375-52.832031-174.152343-.011719-37.160157 6.144531-69.332031 12.285156-92.152344 3.070313-11.402344 6.140625-20.472656 8.429687-26.640625 1.136719-3.085938 2.089844-5.460938 2.746094-7.039062.328125-.792969.566406-1.394532.738282-1.78125l.183593-.40625.054688-.113282c1.550781-3.445312.03125-7.480468-3.394531-9.046875-3.425782-1.546875-7.480469-.027343-9.027344 3.402344" fill="#54596e"/><path d="m115.464844 117.984375-55.847656 55.855469c-25.351563 25.320312-37.988282 58.472656-38 91.699218.011718 33.226563 12.652343 66.378907 38 91.726563l-4.835938 4.832031 4.835938-4.832031c24.804687 24.804687 57.105468 37.441406 89.628906 37.964844-37.765625-59.964844-49.128906-121.039063-49.113282-172.5.015626-43.886719 8.207032-80.867188 15.332032-104.746094" fill="#e6e6e9"/><path d="m59.613281 357.265625-4.832031 4.832031c26.648438 26.640625 61.558594 39.859375 96.480469 39.859375.773437 0 1.546875-.007812 2.320312-.019531-1.480469-2.234375-2.929687-4.472656-4.335937-6.707031-32.527344-.523438-64.824219-13.160157-89.632813-37.964844m60.472657-253.558594-65.304688 65.300781c-53.3125 53.324219-53.3125 139.765626 0 193.09375l4.835938-4.835937c-25.351563-25.347656-37.988282-58.5-38-91.726563.011718-33.226562 12.652343-66.378906 38-91.699218l55.847656-55.851563c1.632812-5.476562 3.207031-10.261719 4.621094-14.28125" fill="#54596e"/><path d="m132.023438 91.765625-11.9375 11.941406c-1.410157 4.019531-2.988282 8.804688-4.621094 14.277344-7.125 23.878906-15.316406 60.859375-15.332032 104.746094-.011718 51.460937 11.347657 112.535156 49.113282 172.5 1.40625 2.234375 2.855468 4.472656 4.335937 6.707031 2.363281-.039062 4.726563-.140625 7.085938-.300781l.3125-.925781c-101.367188-149.648438-28.957031-308.945313-28.957031-308.945313" fill="#54596e"/><path d="m124.238281 334.457031c.65625.316407 25.230469 11.984375 65.898438 11.984375 29.144531.011719 66.535156-6.035156 108.964843-26.46875 3.394532-1.640625 4.820313-5.714844 3.1875-9.113281-1.636718-3.394531-5.714843-4.820313-9.109374-3.179687-40.558594 19.507812-75.769532 25.101562-103.039063 25.113281-19.015625 0-34.171875-2.738281-44.503906-5.441407-5.164063-1.347656-9.121094-2.683593-11.746094-3.671874-1.3125-.492188-2.289063-.894532-2.921875-1.167969l-.679688-.300781-.140624-.066407h-.003907c-3.402343-1.632812-7.480469-.191406-9.113281 3.207031-1.628906 3.398438-.191406 7.480469 3.210938 9.113282zm0 0" fill="#54596e"/><path d="m358.890625 57.992188c-45.324219-45.320313-118.800781-45.320313-164.121094 0-45.320312 45.320312-45.320312 118.796874 0 164.117187 45.320313 45.320313 118.796875 45.320313 164.121094 0 45.320313-45.320313 45.320313-118.796875 0-164.117187zm0 0" fill="#ffd578"/><path d="m358.890625 222.105469 4.828125 4.820312c23.984375-23.980469 36-55.472656 35.992188-86.878906.011718-31.433594-12.007813-62.925781-35.992188-86.894531-23.972656-23.988282-55.460938-36-86.886719-35.988282-31.425781-.011718-62.914062 12-86.890625 35.996094-23.980468 23.972656-35.996094 55.457032-35.988281 86.886719-.007813 31.417969 12.007813 62.90625 35.988281 86.886719 23.976563 23.980468 55.46875 35.992187 86.890625 35.976562 31.425781.015625 62.910157-12.003906 86.886719-35.976562l-4.828125-4.828125-4.824219-4.832031c-21.347656 21.332031-49.257812 31.976562-77.234375 31.992187-27.976562-.015625-55.890625-10.652344-77.234375-31.992187-21.339844-21.339844-31.984375-49.253907-31.992187-77.226563.011719-27.980469 10.652343-55.894531 31.992187-77.234375 21.347656-21.347656 49.257813-31.988281 77.234375-32 27.976563.011719 55.886719 10.652344 77.230469 31.992188 21.34375 21.332031 31.988281 49.253906 31.996094 77.242187-.007813 27.960937-10.652344 55.878906-31.996094 77.230469zm0 0" fill="#54596e"/><path d="m294 157.011719c0 18.851562-15.28125 34.132812-34.132812 34.132812-18.851563 0-34.132813-15.28125-34.132813-34.132812 0-18.851563 15.28125-34.132813 34.132813-34.132813 18.851562 0 34.132812 15.28125 34.132812 34.132813zm0 0" fill="#61c5a8"/><path d="m294 157.011719h6.828125c-.007813-22.628907-18.339844-40.960938-40.960937-40.960938-22.621094 0-40.957032 18.332031-40.960938 40.960938.003906 22.621093 18.339844 40.953125 40.960938 40.953125 22.621093 0 40.953124-18.332032 40.960937-40.953125h-13.65625c-.003906 7.558593-3.046875 14.339843-7.996094 19.304687-4.964843 4.953125-11.75 7.996094-19.308593 8-7.5625-.003906-14.34375-3.042968-19.308594-8-4.953125-4.964844-7.996094-11.746094-8-19.304687.003906-7.566407 3.046875-14.347657 8-19.3125 4.960937-4.953125 11.746094-7.996094 19.308594-8 7.5625.003906 14.34375 3.046875 19.308593 8 4.949219 4.964843 7.992188 11.746093 7.996094 19.3125zm0 0" fill="#54596e"/><path d="m273.519531 157.011719c0 7.539062-6.113281 13.652343-13.652343 13.652343-7.542969 0-13.652344-6.113281-13.652344-13.652343 0-7.539063 6.109375-13.652344 13.652344-13.652344 7.539062 0 13.652343 6.113281 13.652343 13.652344zm0 0" fill="#54596e"/><path d="m240.5625 158.179688c-5.324219 5.304687-8.007812 12.339843-8.003906 19.304687-.007813 6.960937 2.683594 13.988281 7.996094 19.304687 5.316406 5.328126 12.347656 8.015626 19.3125 8.003907 6.972656.011719 13.992187-2.6875 19.304687-7.996094 5.324219-5.320313 8.007813-12.351563 8-19.320313.007813-6.972656-2.671875-14.011718-8.015625-19.3125-2.675781-2.660156-7-2.644531-9.65625.035157-2.660156 2.671875-2.644531 7 .035156 9.660156 2.660156 2.640625 3.976563 6.09375 3.984375 9.621094-.007812 3.519531-1.324219 6.980469-4 9.660156-2.683593 2.679687-6.144531 3.992187-9.652343 4.007813-3.515626-.015626-6.96875-1.328126-9.652344-4.003907-2.683594-2.691406-3.992188-6.144531-4-9.65625.007812-3.519531 1.320312-6.96875 3.996094-9.648437 2.664062-2.664063 2.667968-6.988282.003906-9.652344-2.664063-2.664062-6.984375-2.664062-9.652344 0zm0 0" fill="#fff"/><g fill="#54596e"><path d="m272.003906 57.980469c-3.984375 3.984375-6.003906 9.265625-5.996094 14.484375-.007812 5.214844 2.011719 10.492187 5.996094 14.480468 3.980469 3.984376 9.265625 6.007813 14.484375 5.992188 5.226563.007812 10.5-2.019531 14.472657-5.992188 2.667968-2.667968 2.667968-6.988281.003906-9.652343-2.664063-2.667969-6.980469-2.667969-9.648438 0-1.355468 1.339843-3.070312 1.992187-4.832031 2-1.769531-.015625-3.472656-.660157-4.824219-2-1.351562-1.355469-1.996094-3.0625-2-4.828125.007813-1.773438.652344-3.480469 2-4.828125 2.664063-2.664063 2.664063-6.992188 0-9.65625-2.667968-2.664063-6.988281-2.664063-9.65625.003906zm0 0"/><path d="m325.113281 111.078125c-3.992187 3.972656-6.015625 9.253906-6.007812 14.472656-.007813 5.214844 2.015625 10.492188 5.988281 14.480469l.011719.007812c3.976562 3.992188 9.261719 6.011719 14.480469 6 5.230468.003907 10.5-2.023437 14.476562-5.996093 2.664062-2.664063 2.667969-6.984375.003906-9.652344-2.664062-2.664063-6.984375-2.664063-9.648437 0-1.355469 1.339844-3.074219 1.992187-4.832031 2-1.769532-.011719-3.476563-.660156-4.824219-2l.007812.007813c-1.359375-1.375-2.003906-3.082032-2.011719-4.847657.007813-1.757812.652344-3.464843 1.996094-4.8125 2.664063-2.664062 2.667969-6.988281.003906-9.652343-2.660156-2.667969-6.980468-2.667969-9.648437 0zm0 0"/><path d="m363.722656 14.53125-33.789062 33.792969c-2.667969 2.667969-2.667969 6.996093 0 9.660156 2.664062 2.660156 6.988281 2.660156 9.652344 0l33.789062-33.792969c2.667969-2.664062 2.667969-6.992187 0-9.660156-2.664062-2.660156-6.988281-2.660156-9.652344 0"/><path d="m358.894531 48.324219-14.480469 14.480469c-2.667968 2.664062-2.667968 6.992187-.003906 9.652343 2.667969 2.664063 6.988282 2.671875 9.65625.007813l14.480469-14.480469c2.667969-2.667969 2.667969-6.996094.003906-9.652344-2.667969-2.667969-6.988281-2.671875-9.65625-.007812"/><path d="m383.03125 53.152344-24.136719 24.132812c-2.664062 2.664063-2.664062 6.992188 0 9.660156 2.667969 2.660157 6.988281 2.660157 9.65625 0l24.132813-24.136718c2.667968-2.664063 2.667968-6.992188 0-9.65625-2.667969-2.660156-6.988282-2.660156-9.652344 0"/><path d="m7.28125 13.644531h26.121094l-31.304688 36.519531c-1.742187 2.027344-2.1367185 4.867188-1.019531 7.292969 1.117187 2.433594 3.527344 3.972657 6.203125 3.972657h40.957031c3.769531 0 6.820313-3.058594 6.820313-6.816407 0-3.769531-3.050782-6.820312-6.820313-6.820312l-26.121093-.007813 31.304687-36.519531c1.742187-2.03125 2.136719-4.867187 1.019531-7.292969-1.117187-2.433594-3.527344-3.972656-6.203125-3.972656h-40.957031c-3.773438 0-6.828125 3.054688-6.828125 6.828125 0 3.765625 3.054687 6.824219 6.828125 6.824219zm0 0"/><path d="m61.894531 40.953125h26.121094l-31.304687 36.519531c-1.742188 2.027344-2.136719 4.867188-1.019532 7.292969 1.117188 2.433594 3.527344 3.972656 6.203125 3.972656h40.957031c3.769532 0 6.820313-3.058593 6.820313-6.820312 0-3.765625-3.050781-6.820313-6.820313-6.820313l-26.121093-.007812 31.304687-36.515625c1.742188-2.035157 2.136719-4.871094 1.019532-7.292969-1.117188-2.433594-3.527344-3.972656-6.203126-3.972656h-40.957031c-3.773437 0-6.828125 3.050781-6.828125 6.824218 0 3.765626 3.054688 6.828126 6.828125 6.828126zm0 0"/></g></svg>