<svg height="397pt" viewBox="0 0 397.74209 397" width="397pt" xmlns="http://www.w3.org/2000/svg"><path d="m46.816406 351.300781c-53.3125-53.328125-53.3125-139.78125 0-193.09375l111.019532-111.023437c53.324218-53.324219 139.777343-53.324219 193.089843 0 53.328125 53.3125 53.328125 139.769531 0 193.082031l-111.019531 111.035156c-53.324219 53.3125-139.765625 53.3125-193.089844 0" fill="#fff"/><path d="m46.816406 351.300781 4.832032-4.835937c-25.347657-25.347656-37.988282-58.5-38-91.726563.011718-33.226562 12.652343-66.378906 38-91.699219l111.019531-111.03125c25.347656-25.347656 58.503906-37.988281 91.710937-38.003906 33.226563.015625 66.378906 12.65625 91.714844 38.003906 1.292969 1.277344 3.011719 2.003907 4.832031 2.003907v-6.824219l-4.820312 4.820312c25.335937 25.351563 37.976562 58.503907 37.988281 91.710938-.011719 33.214844-12.652344 66.367188-37.988281 91.726562v-.011718l-111.03125 111.03125c-25.332031 25.335937-58.503907 37.972656-91.710938 37.988281-33.210937-.015625-66.378906-12.652344-91.714843-37.988281l-4.832032 4.835937-4.820312 4.816407c27.964844 27.984374 64.703125 41.996093 101.367187 41.980468 36.664063.015625 73.402344-13.984375 101.363281-41.980468l111.035157-111.019532v-.011718c27.976562-27.980469 41.992187-64.699219 41.980469-101.378907.011718-36.65625-14.003907-73.375-41.980469-101.355469-1.28125-1.28125-3.03125-1.988281-4.835938-1.988281v6.820313l4.835938-4.832032c-27.980469-27.992187-64.71875-41.992187-101.382813-41.980468-36.664062-.015625-73.386718 13.984375-101.363281 41.980468l-111.019531 111.019532c-27.992188 27.96875-41.996094 64.699218-41.996094 101.367187s14.019531 73.402344 41.996094 101.378907z" fill="#54596e"/><path d="m117.84375 78.152344c-.230469.539062-25.648438 56.425781-25.675781 133.78125-.015625 54.121094 12.566406 118.878906 55.1875 181.804687 2.121093 3.128907 6.371093 3.933594 9.484375 1.820313 3.128906-2.105469 3.9375-6.359375 1.835937-9.472656-40.859375-60.335938-52.832031-122.09375-52.84375-174.15625-.015625-37.15625 6.140625-69.332032 12.28125-92.152344 3.070313-11.398438 6.140625-20.472656 8.429688-26.640625 1.136719-3.085938 2.09375-5.457031 2.746093-7.039063.328126-.792968.566407-1.390625.738282-1.777344l.183594-.40625.058593-.113281c1.546875-3.449219.027344-7.480469-3.398437-9.046875-3.429688-1.550781-7.480469-.027344-9.027344 3.398438" fill="#54596e"/><path d="m107.5 107.183594-55.847656 55.855468c-25.351563 25.320313-37.988282 58.472657-38.003906 91.699219.015624 33.226563 12.65625 66.378907 38.003906 91.726563l-4.835938 4.832031 4.835938-4.832031c24.804687 24.804687 57.117187 37.441406 89.628906 37.964844-37.753906-59.964844-49.125-121.039063-49.113281-172.5.015625-43.882813 8.207031-80.863282 15.332031-104.746094" fill="#e6e6e9"/><path d="m51.648438 346.464844-4.832032 4.835937c26.648438 26.636719 61.558594 39.859375 96.480469 39.859375.769531 0 1.542969-.007812 2.316406-.023437-1.476562-2.234375-2.925781-4.472657-4.332031-6.707031-32.511719-.523438-64.824219-13.15625-89.632812-37.964844m60.472656-253.558594-65.304688 65.300781c-53.3125 53.324219-53.3125 139.765625 0 193.09375l4.832032-4.835937c-25.347657-25.347656-37.988282-58.5-38-91.726563.011718-33.226562 12.652343-66.378906 38-91.699219l55.847656-55.851562c1.636718-5.476562 3.210937-10.261719 4.625-14.28125" fill="#54596e"/><path d="m124.054688 80.964844-11.933594 11.941406c-1.410156 4.019531-2.988282 8.804688-4.621094 14.277344-7.125 23.878906-15.316406 60.859375-15.332031 104.746094-.015625 51.460937 11.359375 112.535156 49.113281 172.5 1.40625 2.234374 2.855469 4.472656 4.332031 6.707031 2.363281-.039063 4.730469-.140625 7.089844-.300781l.3125-.925782c-101.367187-149.644531-28.960937-308.945312-28.960937-308.945312" fill="#54596e"/><path d="m116.273438 323.65625c.65625.316406 25.230468 11.984375 65.898437 11.984375 29.144531.011719 66.535156-6.035156 108.964844-26.46875 3.394531-1.640625 4.820312-5.714844 3.183593-9.113281-1.632812-3.394532-5.710937-4.820313-9.105468-3.179688-40.558594 19.507813-75.769532 25.101563-103.042969 25.113282-19.015625 0-34.167969-2.738282-44.5-5.441407-5.164063-1.347656-9.121094-2.683593-11.746094-3.671875-1.3125-.492187-2.292969-.894531-2.921875-1.167968l-.679687-.300782-.140625-.066406h-.007813c-3.398437-1.632812-7.480469-.191406-9.109375 3.207031-1.628906 3.398438-.191406 7.480469 3.207032 9.113281zm0 0" fill="#54596e"/><path d="m350.921875 47.1875c-45.320313-45.320312-118.796875-45.320312-164.117187 0-45.320313 45.320312-45.320313 118.800781 0 164.121094 45.320312 45.320312 118.796874 45.320312 164.117187 0 45.324219-45.320313 45.324219-118.800782 0-164.121094zm0 0" fill="#ffd578"/><g fill="#54596e"><path d="m350.929688 211.304688 4.828124 4.820312c23.980469-23.980469 35.996094-55.472656 35.992188-86.878906.003906-31.433594-12.011719-62.925782-35.996094-86.894532l.003906.007813c-23.976562-23.996094-55.464843-36.007813-86.890624-35.996094-31.421876-.011719-62.910157 12-86.890626 35.996094-23.976562 23.972656-35.996093 55.457031-35.988281 86.886719-.007812 31.417968 12.011719 62.90625 35.992188 86.886718 23.976562 23.980469 55.464843 35.992188 86.890625 35.976563 31.421875.015625 62.910156-12.003906 86.886718-35.976563v-.007812l-4.828124-4.820312-4.828126-4.832032c-21.34375 21.332032-49.257812 31.976563-77.234374 31.992188-27.976563-.015625-55.890626-10.652344-77.234376-31.992188-21.339843-21.339844-31.984374-49.253906-31.988281-77.226562.007813-27.980469 10.648438-55.894532 31.988281-77.234375 21.347657-21.347657 49.261719-31.988281 77.234376-32 27.976562.011719 55.890624 10.652343 77.234374 31.992187v.007813c21.339844 21.324219 31.984376 49.246093 31.992188 77.226562-.007812 27.96875-10.652344 55.886719-31.992188 77.238281v-.003906zm0 0"/><path d="m237.507812 103.671875c-2 4.925781-3 10.160156-3 15.398437-.007812 10.453126 4.015626 20.972657 11.996094 28.96875l.003906.007813c7.984376 7.980469 18.507813 11.992187 28.964844 11.980469 5.082032 0 10.140625-.949219 14.910156-2.789063 3.515626-1.359375 5.265626-5.304687 3.910157-8.824219-1.355469-3.515624-5.304688-5.269531-8.820313-3.90625-3.222656 1.230469-6.625 1.871094-10 1.871094-7.015625-.011718-13.964844-2.652344-19.3125-7.992187l.003906.007812c-5.351562-5.371093-7.996093-12.316406-8.003906-19.320312 0-3.5.667969-6.988281 2-10.273438 1.414063-3.503906-.273437-7.476562-3.765625-8.886719-3.496093-1.421874-7.472656.265626-8.886719 3.765626zm0 0"/><path d="m264.039062 47.179688c-3.984374 3.984374-6.007812 9.265624-5.996093 14.484374-.011719 5.214844 2.011719 10.492188 5.996093 14.480469v-.007812c3.980469 3.992187 9.261719 6.011719 14.480469 6 5.230469.007812 10.503907-2.019531 14.476563-5.992188 2.667968-2.667969 2.667968-6.988281.003906-9.652343-2.664062-2.667969-6.984375-2.667969-9.648438 0-1.355468 1.339843-3.074218 1.992187-4.832031 2-1.769531-.015626-3.472656-.660157-4.824219-2v-.007813c-1.347656-1.347656-1.992187-3.054687-2-4.820313.007813-1.773437.652344-3.480468 2-4.828124 2.664063-2.664063 2.664063-6.992188 0-9.65625-2.667968-2.664063-6.988281-2.664063-9.65625.003906zm0 0"/><path d="m317.144531 100.28125c-3.988281 3.972656-6.011719 9.25-6.003906 14.46875-.007813 5.214844 2.015625 10.496094 5.988281 14.480469l.007813.007812c3.980469 3.992188 9.265625 6.011719 14.484375 6 5.230468.007813 10.5-2.019531 14.476562-5.992187 2.664063-2.667969 2.667969-6.988282.003906-9.652344-2.664062-2.667969-6.984374-2.667969-9.652343 0-1.355469 1.339844-3.070313 1.992188-4.828125 2-1.769532-.015625-3.476563-.660156-4.824219-2l.007813.003906c-1.359376-1.371094-2.003907-3.078125-2.011719-4.847656.007812-1.757812.65625-3.464844 1.996093-4.8125 2.664063-2.664062 2.667969-6.984375.003907-9.652344-2.660157-2.664062-6.980469-2.664062-9.648438 0zm0 0"/><path d="m355.757812 3.730469-33.792968 33.792969c-2.664063 2.667968-2.664063 6.996093 0 9.660156 2.667968 2.660156 6.988281 2.660156 9.65625 0l33.789062-33.792969c2.667969-2.664063 2.667969-6.992187 0-9.660156-2.664062-2.65625-6.988281-2.65625-9.652344 0"/><path d="m350.929688 37.523438-14.480469 14.480468c-2.667969 2.667969-2.667969 6.996094-.003907 9.652344 2.667969 2.667969 6.992188 2.675781 9.65625.007812l14.484376-14.480468c2.664062-2.664063 2.667968-6.992188 0-9.652344-2.664063-2.667969-6.988282-2.671875-9.65625-.007812"/><path d="m375.0625 42.351562-24.132812 24.132813c-2.664063 2.667969-2.664063 6.996094 0 9.660156 2.667968 2.660157 6.988281 2.660157 9.65625 0l24.132812-24.132812c2.664062-2.667969 2.664062-6.996094 0-9.660157-2.667969-2.660156-6.988281-2.660156-9.65625 0"/></g><path d="m333.820312 159.867188c0 7.539062-6.113281 13.652343-13.652343 13.652343-7.542969 0-13.652344-6.113281-13.652344-13.652343 0-7.542969 6.109375-13.65625 13.652344-13.65625 7.539062 0 13.652343 6.113281 13.652343 13.65625zm0 0" fill="#ff927d"/><path d="m238.246094 77.945312c0 7.542969-6.113282 13.652344-13.652344 13.652344s-13.652344-6.109375-13.652344-13.652344c0-7.539062 6.113282-13.652343 13.652344-13.652343s13.652344 6.113281 13.652344 13.652343zm0 0" fill="#ff927d"/></svg>